<svg id="svg" version="1.1" xmlns="http://www.w3.org/2000/svg" xmlns:xlink="http://www.w3.org/1999/xlink" width="400" height="146.63951120162932" viewBox="0, 0, 400,146.63951120162932"><g id="svgg"><path id="path0" d="M19.333 73.083 L 19.333 123.167 26.833 123.167 L 34.333 123.167 34.333 108.429 C 34.333 95.550,34.365 93.659,34.583 93.440 C 34.721 93.303,34.833 93.035,34.833 92.845 C 34.833 92.655,34.908 92.500,35.000 92.500 C 35.092 92.500,35.167 92.384,35.167 92.242 C 35.167 92.100,35.354 91.810,35.583 91.598 C 35.813 91.386,36.000 91.052,36.000 90.856 C 36.000 90.660,36.080 90.500,36.179 90.500 C 36.473 90.500,36.833 90.048,36.833 89.679 C 36.833 89.483,36.942 89.333,37.083 89.333 C 37.221 89.333,37.333 89.221,37.333 89.083 C 37.333 88.946,37.408 88.833,37.500 88.833 C 37.592 88.833,37.667 88.683,37.667 88.500 C 37.667 88.317,37.742 88.167,37.833 88.167 C 37.925 88.167,38.000 88.054,38.000 87.917 C 38.000 87.779,38.112 87.667,38.250 87.667 C 38.406 87.667,38.500 87.509,38.500 87.250 C 38.500 87.021,38.537 86.833,38.583 86.833 C 38.804 86.833,39.333 87.539,39.333 87.833 C 39.333 88.017,39.408 88.167,39.500 88.167 C 39.592 88.167,39.667 88.317,39.667 88.500 C 39.667 88.685,39.778 88.833,39.917 88.833 C 40.054 88.833,40.167 88.946,40.167 89.083 C 40.167 89.221,40.242 89.333,40.333 89.333 C 40.425 89.333,40.500 89.521,40.500 89.750 C 40.500 90.009,40.594 90.167,40.750 90.167 C 40.906 90.167,41.000 90.324,41.000 90.583 C 41.000 90.813,41.075 91.000,41.167 91.000 C 41.258 91.000,41.333 91.116,41.333 91.258 C 41.333 91.400,41.521 91.690,41.750 91.902 C 41.979 92.114,42.167 92.448,42.167 92.644 C 42.167 92.840,42.242 93.000,42.333 93.000 C 42.425 93.000,42.500 93.109,42.500 93.242 C 42.500 93.376,42.688 93.672,42.917 93.902 C 43.146 94.131,43.333 94.472,43.333 94.659 C 43.333 94.851,43.443 95.000,43.583 95.000 C 43.725 95.000,43.833 95.149,43.833 95.345 C 43.833 95.714,44.194 96.167,44.488 96.167 C 44.586 96.167,44.667 96.354,44.667 96.583 C 44.667 96.813,44.742 97.000,44.833 97.000 C 44.925 97.000,45.000 97.188,45.000 97.417 C 45.000 97.676,45.094 97.833,45.250 97.833 C 45.391 97.833,45.500 97.982,45.500 98.174 C 45.500 98.361,45.650 98.675,45.833 98.872 C 46.017 99.069,46.167 99.365,46.167 99.531 C 46.167 99.697,46.279 99.833,46.417 99.833 C 46.572 99.833,46.667 99.991,46.667 100.250 C 46.667 100.479,46.742 100.667,46.833 100.667 C 46.925 100.667,47.000 100.779,47.000 100.917 C 47.000 101.054,47.112 101.167,47.250 101.167 C 47.406 101.167,47.500 101.324,47.500 101.583 C 47.500 101.813,47.575 102.000,47.667 102.000 C 47.758 102.000,47.833 102.150,47.833 102.333 C 47.833 102.519,47.944 102.667,48.083 102.667 C 48.239 102.667,48.333 102.824,48.333 103.083 C 48.333 103.313,48.408 103.500,48.500 103.500 C 48.592 103.500,48.667 103.612,48.667 103.750 C 48.667 103.888,48.779 104.000,48.917 104.000 C 49.072 104.000,49.167 104.157,49.167 104.417 C 49.167 104.646,49.242 104.833,49.333 104.833 C 49.425 104.833,49.500 104.983,49.500 105.167 C 49.500 105.350,49.575 105.500,49.667 105.500 C 49.758 105.500,49.833 105.612,49.833 105.750 C 49.833 105.888,49.946 106.000,50.083 106.000 C 50.239 106.000,50.333 106.157,50.333 106.417 C 50.333 106.646,50.408 106.833,50.500 106.833 C 50.592 106.833,50.667 106.973,50.667 107.143 C 50.667 107.314,50.854 107.594,51.083 107.766 C 51.313 107.939,51.500 108.249,51.500 108.456 C 51.500 108.680,51.601 108.833,51.750 108.833 C 51.906 108.833,52.000 108.991,52.000 109.250 C 52.000 109.479,52.075 109.667,52.167 109.667 C 52.258 109.667,52.333 109.806,52.333 109.977 C 52.333 110.147,52.521 110.427,52.750 110.600 C 52.979 110.772,53.167 111.082,53.167 111.290 C 53.167 111.497,53.234 111.667,53.315 111.667 C 53.397 111.667,53.511 111.854,53.568 112.083 C 53.626 112.313,53.747 112.500,53.837 112.500 C 53.926 112.500,54.000 112.612,54.000 112.750 C 54.000 112.888,54.075 113.000,54.167 113.000 C 54.258 113.000,54.333 113.150,54.333 113.333 C 54.333 113.519,54.444 113.667,54.583 113.667 C 54.739 113.667,54.833 113.824,54.833 114.083 C 54.833 114.313,54.908 114.500,55.000 114.500 C 55.092 114.500,55.167 114.688,55.167 114.917 C 55.167 115.176,55.261 115.333,55.417 115.333 C 55.554 115.333,55.667 115.446,55.667 115.583 C 55.667 115.721,55.742 115.833,55.833 115.833 C 55.925 115.833,56.000 115.983,56.000 116.167 C 56.000 116.350,56.074 116.500,56.163 116.500 C 56.253 116.500,56.374 116.687,56.432 116.917 C 56.489 117.146,56.603 117.333,56.685 117.333 C 56.766 117.333,56.833 117.446,56.833 117.583 C 56.833 117.721,56.908 117.833,57.000 117.833 C 57.092 117.833,57.167 117.986,57.167 118.172 C 57.167 118.358,57.279 118.554,57.417 118.606 C 57.554 118.659,57.669 118.826,57.672 118.976 C 57.679 119.322,58.060 119.833,58.310 119.833 C 58.415 119.833,58.500 120.021,58.500 120.250 C 58.500 120.479,58.575 120.667,58.667 120.667 C 58.758 120.667,58.833 120.854,58.833 121.083 C 58.833 121.343,58.928 121.500,59.083 121.500 C 59.221 121.500,59.333 121.633,59.333 121.796 C 59.333 121.959,59.555 122.335,59.825 122.631 L 60.317 123.170 68.534 123.127 L 76.750 123.083 76.805 122.600 C 76.846 122.245,76.746 122.019,76.430 121.747 C 76.194 121.544,76.000 121.218,76.000 121.022 C 76.000 120.817,75.894 120.667,75.750 120.667 C 75.594 120.667,75.500 120.509,75.500 120.250 C 75.500 120.021,75.425 119.833,75.333 119.833 C 75.242 119.833,75.167 119.694,75.167 119.523 C 75.167 119.353,74.979 119.073,74.750 118.900 C 74.521 118.728,74.333 118.418,74.333 118.210 C 74.333 118.003,74.258 117.833,74.167 117.833 C 74.075 117.833,74.000 117.724,74.000 117.591 C 74.000 117.458,73.813 117.161,73.583 116.932 C 73.354 116.703,73.167 116.362,73.167 116.174 C 73.167 115.982,73.057 115.833,72.917 115.833 C 72.761 115.833,72.667 115.676,72.667 115.417 C 72.667 115.188,72.592 115.000,72.500 115.000 C 72.408 115.000,72.333 114.888,72.333 114.750 C 72.333 114.612,72.221 114.500,72.083 114.500 C 71.928 114.500,71.833 114.343,71.833 114.083 C 71.833 113.854,71.758 113.667,71.667 113.667 C 71.575 113.667,71.500 113.517,71.500 113.333 C 71.500 113.148,71.389 113.000,71.250 113.000 C 71.094 113.000,71.000 112.843,71.000 112.583 C 71.000 112.354,70.925 112.167,70.833 112.167 C 70.742 112.167,70.667 112.054,70.667 111.917 C 70.667 111.779,70.592 111.667,70.500 111.667 C 70.408 111.667,70.333 111.514,70.333 111.328 C 70.333 111.142,70.221 110.946,70.083 110.894 C 69.946 110.841,69.833 110.656,69.833 110.482 C 69.833 110.309,69.758 110.167,69.667 110.167 C 69.575 110.167,69.500 110.054,69.500 109.917 C 69.500 109.779,69.387 109.667,69.250 109.667 C 69.094 109.667,69.000 109.509,69.000 109.250 C 69.000 109.021,68.925 108.833,68.833 108.833 C 68.742 108.833,68.667 108.694,68.667 108.523 C 68.667 108.353,68.479 108.073,68.250 107.900 C 68.021 107.728,67.833 107.418,67.833 107.210 C 67.833 106.986,67.732 106.833,67.583 106.833 C 67.428 106.833,67.333 106.676,67.333 106.417 C 67.333 106.188,67.258 106.000,67.167 106.000 C 67.075 106.000,66.998 105.869,66.995 105.708 C 66.988 105.348,66.613 104.833,66.357 104.833 C 66.252 104.833,66.167 104.646,66.167 104.417 C 66.167 104.188,66.092 104.000,66.000 104.000 C 65.908 104.000,65.833 103.861,65.833 103.690 C 65.833 103.520,65.646 103.239,65.417 103.067 C 65.187 102.895,65.000 102.585,65.000 102.377 C 65.000 102.153,64.899 102.000,64.750 102.000 C 64.594 102.000,64.500 101.843,64.500 101.583 C 64.500 101.354,64.425 101.167,64.333 101.167 C 64.242 101.167,64.167 101.054,64.167 100.917 C 64.167 100.779,64.054 100.667,63.917 100.667 C 63.761 100.667,63.667 100.509,63.667 100.250 C 63.667 100.021,63.592 99.833,63.500 99.833 C 63.408 99.833,63.333 99.683,63.333 99.500 C 63.333 99.317,63.258 99.167,63.167 99.167 C 63.075 99.167,63.000 99.054,63.000 98.917 C 63.000 98.779,62.887 98.667,62.750 98.667 C 62.594 98.667,62.500 98.509,62.500 98.250 C 62.500 98.021,62.425 97.833,62.333 97.833 C 62.242 97.833,62.167 97.681,62.167 97.495 C 62.167 97.309,62.054 97.113,61.917 97.060 C 61.779 97.008,61.667 96.822,61.667 96.649 C 61.667 96.475,61.592 96.333,61.500 96.333 C 61.408 96.333,61.333 96.221,61.333 96.083 C 61.333 95.946,61.221 95.833,61.083 95.833 C 60.928 95.833,60.833 95.676,60.833 95.417 C 60.833 95.188,60.758 95.000,60.667 95.000 C 60.575 95.000,60.500 94.861,60.500 94.690 C 60.500 94.520,60.313 94.239,60.083 94.067 C 59.854 93.895,59.667 93.585,59.667 93.377 C 59.667 93.170,59.592 93.000,59.500 93.000 C 59.408 93.000,59.333 92.891,59.333 92.758 C 59.333 92.624,59.146 92.328,58.917 92.098 C 58.688 91.869,58.500 91.528,58.500 91.341 C 58.500 91.149,58.391 91.000,58.250 91.000 C 58.094 91.000,58.000 90.843,58.000 90.583 C 58.000 90.354,57.925 90.167,57.833 90.167 C 57.742 90.167,57.667 90.054,57.667 89.917 C 57.667 89.779,57.554 89.667,57.417 89.667 C 57.278 89.667,57.167 89.519,57.167 89.333 C 57.167 89.150,57.092 89.000,57.000 89.000 C 56.908 89.000,56.833 88.813,56.833 88.583 C 56.833 88.324,56.739 88.167,56.583 88.167 C 56.428 88.167,56.333 88.009,56.333 87.750 C 56.333 87.521,56.258 87.333,56.167 87.333 C 56.075 87.333,56.000 87.221,56.000 87.083 C 56.000 86.946,55.925 86.833,55.833 86.833 C 55.742 86.833,55.667 86.691,55.667 86.518 C 55.667 86.344,55.554 86.159,55.417 86.106 C 55.279 86.054,55.167 85.858,55.167 85.672 C 55.167 85.486,55.092 85.333,55.000 85.333 C 54.908 85.333,54.833 85.221,54.833 85.083 C 54.833 84.946,54.721 84.833,54.583 84.833 C 54.428 84.833,54.333 84.676,54.333 84.417 C 54.333 84.188,54.258 84.000,54.167 84.000 C 54.075 84.000,54.000 83.861,54.000 83.690 C 54.000 83.520,53.813 83.239,53.583 83.067 C 53.354 82.895,53.167 82.585,53.167 82.377 C 53.167 82.153,53.065 82.000,52.917 82.000 C 52.761 82.000,52.667 81.843,52.667 81.583 C 52.667 81.354,52.592 81.167,52.500 81.167 C 52.408 81.167,52.331 81.035,52.328 80.875 C 52.321 80.515,51.946 80.000,51.690 80.000 C 51.585 80.000,51.500 79.813,51.500 79.583 C 51.500 79.354,51.425 79.167,51.333 79.167 C 51.242 79.167,51.167 79.027,51.167 78.857 C 51.167 78.686,50.979 78.406,50.750 78.234 C 50.521 78.061,50.333 77.751,50.333 77.544 C 50.333 77.320,50.232 77.167,50.083 77.167 C 49.928 77.167,49.833 77.009,49.833 76.750 C 49.833 76.521,49.758 76.333,49.667 76.333 C 49.575 76.333,49.500 76.221,49.500 76.083 C 49.500 75.946,49.387 75.833,49.250 75.833 C 49.111 75.833,49.000 75.685,49.000 75.500 C 49.000 75.317,48.925 75.167,48.833 75.167 C 48.742 75.167,48.667 74.979,48.667 74.750 C 48.667 74.521,48.592 74.333,48.500 74.333 C 48.408 74.333,48.333 74.181,48.333 73.995 C 48.333 73.809,48.221 73.613,48.083 73.560 C 47.946 73.508,47.833 73.293,47.833 73.083 C 47.833 72.874,47.946 72.659,48.083 72.606 C 48.221 72.554,48.333 72.358,48.333 72.172 C 48.333 71.986,48.408 71.833,48.500 71.833 C 48.592 71.833,48.667 71.721,48.667 71.583 C 48.667 71.446,48.742 71.333,48.833 71.333 C 48.925 71.333,49.000 71.183,49.000 71.000 C 49.000 70.815,49.111 70.667,49.250 70.667 C 49.406 70.667,49.500 70.509,49.500 70.250 C 49.500 70.021,49.575 69.833,49.667 69.833 C 49.758 69.833,49.833 69.721,49.833 69.583 C 49.833 69.446,49.946 69.333,50.083 69.333 C 50.239 69.333,50.333 69.176,50.333 68.917 C 50.333 68.688,50.408 68.500,50.500 68.500 C 50.592 68.500,50.667 68.358,50.667 68.184 C 50.667 68.011,50.779 67.826,50.917 67.773 C 51.054 67.720,51.167 67.525,51.167 67.339 C 51.167 67.152,51.242 67.000,51.333 67.000 C 51.425 67.000,51.500 66.896,51.500 66.768 C 51.500 66.640,51.612 66.492,51.750 66.440 C 51.887 66.387,52.000 66.191,52.000 66.005 C 52.000 65.819,52.075 65.667,52.167 65.667 C 52.258 65.667,52.333 65.511,52.333 65.321 C 52.333 64.952,52.694 64.500,52.988 64.500 C 53.086 64.500,53.167 64.313,53.167 64.083 C 53.167 63.854,53.242 63.667,53.333 63.667 C 53.425 63.667,53.500 63.479,53.500 63.250 C 53.500 63.021,53.580 62.833,53.679 62.833 C 53.967 62.833,54.333 62.384,54.333 62.030 C 54.333 61.850,54.446 61.659,54.583 61.606 C 54.721 61.554,54.833 61.358,54.833 61.172 C 54.833 60.986,54.908 60.833,55.000 60.833 C 55.092 60.833,55.167 60.729,55.167 60.601 C 55.167 60.473,55.279 60.326,55.417 60.273 C 55.554 60.220,55.667 60.062,55.667 59.922 C 55.667 59.782,55.742 59.667,55.833 59.667 C 55.925 59.667,56.000 59.479,56.000 59.250 C 56.000 59.021,56.075 58.833,56.167 58.833 C 56.258 58.833,56.333 58.646,56.333 58.417 C 56.333 58.157,56.428 58.000,56.583 58.000 C 56.721 58.000,56.833 57.887,56.833 57.750 C 56.833 57.612,56.908 57.500,57.000 57.500 C 57.092 57.500,57.167 57.358,57.167 57.184 C 57.167 57.011,57.279 56.826,57.417 56.773 C 57.554 56.720,57.667 56.525,57.667 56.339 C 57.667 56.152,57.742 56.000,57.833 56.000 C 57.925 56.000,58.000 55.896,58.000 55.768 C 58.000 55.640,58.112 55.492,58.250 55.440 C 58.387 55.387,58.500 55.191,58.500 55.005 C 58.500 54.819,58.575 54.667,58.667 54.667 C 58.758 54.667,58.833 54.527,58.833 54.357 C 58.833 54.186,59.021 53.906,59.250 53.734 C 59.479 53.561,59.667 53.251,59.667 53.044 C 59.667 52.836,59.742 52.667,59.833 52.667 C 59.925 52.667,60.000 52.479,60.000 52.250 C 60.000 51.991,60.094 51.833,60.250 51.833 C 60.399 51.833,60.500 51.680,60.500 51.456 C 60.500 51.249,60.687 50.939,60.917 50.766 C 61.146 50.594,61.333 50.314,61.333 50.143 C 61.333 49.973,61.408 49.833,61.500 49.833 C 61.592 49.833,61.667 49.646,61.667 49.417 C 61.667 49.188,61.752 49.000,61.857 49.000 C 62.107 49.000,62.488 48.488,62.495 48.143 C 62.498 47.992,62.612 47.826,62.750 47.773 C 62.887 47.720,63.000 47.525,63.000 47.339 C 63.000 47.152,63.075 47.000,63.167 47.000 C 63.258 47.000,63.333 46.887,63.333 46.750 C 63.333 46.612,63.408 46.500,63.500 46.500 C 63.592 46.500,63.667 46.358,63.667 46.184 C 63.667 46.011,63.779 45.826,63.917 45.773 C 64.054 45.720,64.167 45.525,64.167 45.339 C 64.167 45.152,64.242 45.000,64.333 45.000 C 64.425 45.000,64.500 44.813,64.500 44.583 C 64.500 44.324,64.594 44.167,64.750 44.167 C 64.887 44.167,65.000 44.054,65.000 43.917 C 65.000 43.779,65.075 43.667,65.167 43.667 C 65.258 43.667,65.333 43.525,65.333 43.351 C 65.333 43.178,65.446 42.992,65.583 42.940 C 65.721 42.887,65.833 42.691,65.833 42.505 C 65.833 42.319,65.908 42.167,66.000 42.167 C 66.092 42.167,66.167 42.054,66.167 41.917 C 66.167 41.779,66.240 41.667,66.330 41.667 C 66.420 41.667,66.541 41.479,66.598 41.250 C 66.656 41.021,66.770 40.833,66.851 40.833 C 66.933 40.833,67.000 40.678,67.000 40.488 C 67.000 40.119,67.361 39.667,67.655 39.667 C 67.753 39.667,67.833 39.479,67.833 39.250 C 67.833 39.021,67.908 38.833,68.000 38.833 C 68.092 38.833,68.167 38.646,68.167 38.417 C 68.167 38.157,68.261 38.000,68.417 38.000 C 68.565 38.000,68.667 37.847,68.667 37.623 C 68.667 37.415,68.854 37.105,69.083 36.933 C 69.313 36.761,69.500 36.480,69.500 36.310 C 69.500 36.139,69.575 36.000,69.667 36.000 C 69.758 36.000,69.833 35.813,69.833 35.583 C 69.833 35.354,69.919 35.167,70.023 35.167 C 70.279 35.167,70.655 34.652,70.661 34.292 C 70.664 34.131,70.742 34.000,70.833 34.000 C 70.925 34.000,71.000 33.813,71.000 33.583 C 71.000 33.324,71.094 33.167,71.250 33.167 C 71.387 33.167,71.500 33.054,71.500 32.917 C 71.500 32.779,71.575 32.667,71.667 32.667 C 71.758 32.667,71.833 32.525,71.833 32.351 C 71.833 32.178,71.946 31.992,72.083 31.940 C 72.221 31.887,72.333 31.691,72.333 31.505 C 72.333 31.319,72.408 31.167,72.500 31.167 C 72.592 31.167,72.667 30.979,72.667 30.750 C 72.667 30.491,72.761 30.333,72.917 30.333 C 73.054 30.333,73.167 30.221,73.167 30.083 C 73.167 29.946,73.242 29.833,73.333 29.833 C 73.425 29.833,73.500 29.691,73.500 29.518 C 73.500 29.344,73.613 29.159,73.750 29.106 C 73.887 29.054,74.000 28.858,74.000 28.672 C 74.000 28.486,74.075 28.333,74.167 28.333 C 74.258 28.333,74.333 28.221,74.333 28.083 C 74.333 27.946,74.408 27.833,74.500 27.833 C 74.592 27.833,74.667 27.646,74.667 27.417 C 74.667 27.157,74.761 27.000,74.917 27.000 C 75.065 27.000,75.167 26.847,75.167 26.623 C 75.167 26.415,75.354 26.105,75.583 25.933 C 75.813 25.761,76.000 25.480,76.000 25.310 C 76.000 25.139,76.075 25.000,76.167 25.000 C 76.258 25.000,76.333 24.813,76.333 24.583 C 76.333 24.317,76.427 24.167,76.594 24.167 C 76.787 24.167,76.841 24.027,76.802 23.625 L 76.750 23.083 68.281 23.040 C 59.489 22.995,59.333 23.006,59.333 23.655 C 59.333 23.753,59.221 23.833,59.083 23.833 C 58.928 23.833,58.833 23.991,58.833 24.250 C 58.833 24.479,58.758 24.667,58.667 24.667 C 58.575 24.667,58.500 24.854,58.500 25.083 C 58.500 25.313,58.420 25.500,58.321 25.500 C 58.027 25.500,57.667 25.952,57.667 26.321 C 57.667 26.517,57.558 26.667,57.417 26.667 C 57.268 26.667,57.167 26.820,57.167 27.047 C 57.167 27.255,57.017 27.535,56.833 27.667 C 56.650 27.799,56.500 28.043,56.500 28.209 C 56.500 28.375,56.387 28.554,56.250 28.606 C 56.112 28.659,56.000 28.882,56.000 29.101 C 56.000 29.321,55.925 29.500,55.833 29.500 C 55.742 29.500,55.667 29.613,55.667 29.750 C 55.667 29.887,55.554 30.000,55.417 30.000 C 55.278 30.000,55.167 30.148,55.167 30.333 C 55.167 30.517,55.092 30.667,55.000 30.667 C 54.908 30.667,54.833 30.854,54.833 31.083 C 54.833 31.343,54.739 31.500,54.583 31.500 C 54.428 31.500,54.333 31.657,54.333 31.917 C 54.333 32.146,54.258 32.333,54.167 32.333 C 54.075 32.333,54.000 32.446,54.000 32.583 C 54.000 32.721,53.887 32.833,53.750 32.833 C 53.612 32.833,53.500 32.979,53.500 33.157 C 53.500 33.335,53.425 33.527,53.333 33.583 C 53.242 33.640,53.167 33.832,53.167 34.010 C 53.167 34.188,53.092 34.333,53.000 34.333 C 52.908 34.333,52.833 34.446,52.833 34.583 C 52.833 34.721,52.721 34.833,52.583 34.833 C 52.428 34.833,52.333 34.991,52.333 35.250 C 52.333 35.479,52.258 35.667,52.167 35.667 C 52.075 35.667,52.000 35.854,52.000 36.083 C 52.000 36.313,51.920 36.500,51.821 36.500 C 51.527 36.500,51.167 36.952,51.167 37.321 C 51.167 37.517,51.058 37.667,50.917 37.667 C 50.776 37.667,50.667 37.816,50.667 38.008 C 50.667 38.195,50.479 38.536,50.250 38.765 C 50.021 38.994,49.833 39.291,49.833 39.424 C 49.833 39.558,49.758 39.667,49.667 39.667 C 49.575 39.667,49.500 39.827,49.500 40.023 C 49.500 40.218,49.313 40.552,49.083 40.765 C 48.854 40.977,48.667 41.267,48.667 41.409 C 48.667 41.551,48.592 41.667,48.500 41.667 C 48.408 41.667,48.333 41.854,48.333 42.083 C 48.333 42.343,48.239 42.500,48.083 42.500 C 47.928 42.500,47.833 42.657,47.833 42.917 C 47.833 43.146,47.758 43.333,47.667 43.333 C 47.575 43.333,47.500 43.446,47.500 43.583 C 47.500 43.721,47.387 43.833,47.250 43.833 C 47.111 43.833,47.000 43.981,47.000 44.167 C 47.000 44.350,46.925 44.500,46.833 44.500 C 46.742 44.500,46.667 44.654,46.667 44.841 C 46.667 45.029,46.479 45.356,46.250 45.569 C 46.021 45.781,45.833 46.115,45.833 46.311 C 45.833 46.507,45.758 46.667,45.667 46.667 C 45.575 46.667,45.500 46.783,45.500 46.925 C 45.500 47.067,45.313 47.356,45.083 47.569 C 44.854 47.781,44.667 48.115,44.667 48.311 C 44.667 48.516,44.561 48.667,44.417 48.667 C 44.268 48.667,44.167 48.820,44.167 49.044 C 44.167 49.251,43.979 49.561,43.750 49.734 C 43.521 49.906,43.333 50.186,43.333 50.357 C 43.333 50.527,43.258 50.667,43.167 50.667 C 43.075 50.667,43.000 50.854,43.000 51.083 C 43.000 51.343,42.906 51.500,42.750 51.500 C 42.601 51.500,42.500 51.653,42.500 51.880 C 42.500 52.089,42.350 52.368,42.167 52.500 C 41.983 52.632,41.833 52.911,41.833 53.120 C 41.833 53.347,41.732 53.500,41.583 53.500 C 41.439 53.500,41.333 53.651,41.333 53.856 C 41.333 54.052,41.146 54.386,40.917 54.598 C 40.688 54.810,40.500 55.100,40.500 55.242 C 40.500 55.384,40.425 55.500,40.333 55.500 C 40.242 55.500,40.167 55.688,40.167 55.917 C 40.167 56.176,40.072 56.333,39.917 56.333 C 39.779 56.333,39.667 56.446,39.667 56.583 C 39.667 56.721,39.592 56.833,39.500 56.833 C 39.408 56.833,39.333 57.021,39.333 57.250 C 39.333 57.509,39.239 57.667,39.083 57.667 C 38.944 57.667,38.833 57.815,38.833 58.000 C 38.833 58.183,38.758 58.333,38.667 58.333 C 38.575 58.333,38.500 58.446,38.500 58.583 C 38.500 58.721,38.425 58.833,38.333 58.833 C 38.242 58.833,38.167 59.021,38.167 59.250 C 38.167 59.509,38.072 59.667,37.917 59.667 C 37.768 59.667,37.667 59.820,37.667 60.044 C 37.667 60.251,37.479 60.561,37.250 60.734 C 37.021 60.906,36.833 61.186,36.833 61.357 C 36.833 61.527,36.758 61.667,36.667 61.667 C 36.575 61.667,36.500 61.854,36.500 62.083 C 36.500 62.343,36.406 62.500,36.250 62.500 C 36.109 62.500,36.000 62.649,36.000 62.841 C 36.000 63.028,35.813 63.369,35.583 63.598 C 35.354 63.828,35.167 64.124,35.167 64.258 C 35.167 64.391,35.092 64.500,35.000 64.500 C 34.908 64.500,34.833 64.655,34.833 64.845 C 34.833 65.035,34.721 65.303,34.583 65.440 C 34.361 65.663,34.333 63.319,34.333 44.345 L 34.333 23.000 26.833 23.000 L 19.333 23.000 19.333 73.083 M87.833 62.250 C 87.833 88.306,87.889 101.500,88.000 101.500 C 88.093 101.500,88.167 101.944,88.167 102.500 C 88.167 103.278,88.222 103.500,88.417 103.500 C 88.606 103.500,88.667 103.704,88.667 104.333 C 88.667 104.792,88.742 105.167,88.833 105.167 C 88.925 105.167,89.000 105.429,89.000 105.750 C 89.000 106.071,89.065 106.333,89.145 106.333 C 89.225 106.333,89.339 106.633,89.397 107.000 C 89.456 107.367,89.578 107.667,89.669 107.667 C 89.759 107.667,89.833 107.854,89.833 108.083 C 89.833 108.313,89.908 108.500,90.000 108.500 C 90.092 108.500,90.167 108.727,90.167 109.005 C 90.167 109.301,90.271 109.550,90.417 109.606 C 90.554 109.659,90.667 109.882,90.667 110.101 C 90.667 110.321,90.742 110.500,90.833 110.500 C 90.925 110.500,91.000 110.639,91.000 110.810 C 91.000 110.980,91.188 111.261,91.417 111.433 C 91.646 111.605,91.833 111.915,91.833 112.123 C 91.833 112.347,91.935 112.500,92.083 112.500 C 92.226 112.500,92.333 112.650,92.333 112.847 C 92.333 113.038,92.596 113.449,92.917 113.761 C 93.237 114.073,93.500 114.436,93.500 114.568 C 93.500 114.701,93.688 114.957,93.917 115.137 C 94.146 115.317,94.333 115.515,94.333 115.578 C 94.333 115.743,94.784 116.167,94.960 116.167 C 95.043 116.167,95.211 116.354,95.333 116.583 C 95.456 116.813,95.638 117.000,95.739 117.000 C 95.839 117.000,96.062 117.188,96.234 117.417 C 96.406 117.646,96.654 117.833,96.785 117.833 C 96.915 117.833,97.270 118.096,97.573 118.417 C 97.875 118.737,98.283 119.000,98.478 119.000 C 98.683 119.000,98.833 119.106,98.833 119.250 C 98.833 119.399,98.987 119.500,99.213 119.500 C 99.422 119.500,99.701 119.650,99.833 119.833 C 99.965 120.017,100.245 120.167,100.453 120.167 C 100.680 120.167,100.833 120.268,100.833 120.417 C 100.833 120.591,101.009 120.667,101.417 120.667 C 101.737 120.667,102.000 120.742,102.000 120.833 C 102.000 120.925,102.188 121.000,102.417 121.000 C 102.676 121.000,102.833 121.094,102.833 121.250 C 102.833 121.425,103.009 121.500,103.417 121.500 C 103.737 121.500,104.000 121.575,104.000 121.667 C 104.000 121.758,104.300 121.833,104.667 121.833 C 105.148 121.833,105.333 121.903,105.333 122.083 C 105.333 122.272,105.537 122.333,106.167 122.333 C 106.625 122.333,107.000 122.408,107.000 122.500 C 107.000 122.594,107.476 122.667,108.095 122.667 C 108.847 122.667,109.269 122.745,109.440 122.917 C 109.814 123.290,117.750 123.290,117.894 122.917 C 117.966 122.727,118.273 122.667,119.161 122.667 C 119.832 122.667,120.333 122.595,120.333 122.500 C 120.333 122.407,120.778 122.333,121.333 122.333 C 122.111 122.333,122.333 122.278,122.333 122.083 C 122.333 121.903,122.519 121.833,123.000 121.833 C 123.367 121.833,123.667 121.758,123.667 121.667 C 123.667 121.575,123.894 121.500,124.172 121.500 C 124.467 121.500,124.717 121.396,124.773 121.250 C 124.826 121.112,125.048 121.000,125.268 121.000 C 125.487 121.000,125.667 120.925,125.667 120.833 C 125.667 120.742,125.846 120.667,126.066 120.667 C 126.285 120.667,126.508 120.554,126.560 120.417 C 126.613 120.279,126.809 120.167,126.995 120.167 C 127.181 120.167,127.333 120.092,127.333 120.000 C 127.333 119.908,127.521 119.833,127.750 119.833 C 127.979 119.833,128.167 119.758,128.167 119.667 C 128.167 119.575,128.282 119.500,128.422 119.500 C 128.562 119.500,128.720 119.388,128.773 119.250 C 128.826 119.113,128.973 119.000,129.101 119.000 C 129.229 119.000,129.333 118.925,129.333 118.833 C 129.333 118.742,129.473 118.667,129.643 118.667 C 129.814 118.667,130.094 118.479,130.266 118.250 C 130.438 118.021,130.674 117.833,130.790 117.833 C 130.905 117.833,131.000 117.753,131.000 117.655 C 131.000 117.461,131.410 117.000,131.583 117.000 C 131.744 117.000,132.167 116.546,132.167 116.373 C 132.167 116.291,132.354 116.123,132.583 116.000 C 132.813 115.877,133.000 115.709,133.000 115.627 C 133.000 115.419,133.438 115.000,133.655 115.000 C 133.753 115.000,133.833 114.905,133.833 114.790 C 133.833 114.674,134.021 114.438,134.250 114.266 C 134.479 114.094,134.667 113.832,134.667 113.683 C 134.667 113.534,134.854 113.272,135.083 113.100 C 135.313 112.927,135.500 112.647,135.500 112.477 C 135.500 112.306,135.575 112.167,135.667 112.167 C 135.758 112.167,135.833 112.054,135.833 111.917 C 135.833 111.779,135.900 111.667,135.982 111.667 C 136.064 111.667,136.178 111.479,136.235 111.250 C 136.293 111.021,136.413 110.833,136.503 110.833 C 136.593 110.833,136.667 110.646,136.667 110.417 C 136.667 110.188,136.742 110.000,136.833 110.000 C 136.925 110.000,137.000 109.848,137.000 109.661 C 137.000 109.475,137.112 109.280,137.250 109.227 C 137.404 109.168,137.500 108.914,137.500 108.566 C 137.500 108.254,137.575 108.000,137.667 108.000 C 137.758 108.000,137.833 107.813,137.833 107.583 C 137.833 107.324,137.928 107.167,138.083 107.167 C 138.258 107.167,138.333 106.991,138.333 106.583 C 138.333 106.263,138.408 106.000,138.500 106.000 C 138.592 106.000,138.667 105.625,138.667 105.167 C 138.667 104.537,138.728 104.333,138.917 104.333 C 139.106 104.333,139.167 104.130,139.167 103.500 C 139.167 103.042,139.242 102.667,139.333 102.667 C 139.431 102.667,139.500 102.083,139.500 101.250 C 139.500 100.417,139.569 99.833,139.667 99.833 C 139.777 99.833,139.833 86.917,139.833 61.417 L 139.833 23.000 132.333 23.000 L 124.833 23.000 124.833 61.250 C 124.833 86.639,124.777 99.500,124.667 99.500 C 124.575 99.500,124.500 99.875,124.500 100.333 C 124.500 100.963,124.439 101.167,124.250 101.167 C 124.075 101.167,124.000 101.343,124.000 101.750 C 124.000 102.071,123.925 102.333,123.833 102.333 C 123.742 102.333,123.667 102.588,123.667 102.899 C 123.667 103.248,123.571 103.501,123.417 103.560 C 123.279 103.613,123.167 103.809,123.167 103.995 C 123.167 104.181,123.092 104.333,123.000 104.333 C 122.908 104.333,122.833 104.485,122.833 104.670 C 122.833 104.855,122.571 105.261,122.250 105.572 C 121.929 105.884,121.667 106.295,121.667 106.486 C 121.667 106.677,121.586 106.833,121.488 106.833 C 121.257 106.833,120.833 107.257,120.833 107.488 C 120.833 107.586,120.673 107.667,120.477 107.667 C 120.282 107.667,119.948 107.854,119.735 108.083 C 119.523 108.313,119.233 108.500,119.091 108.500 C 118.949 108.500,118.833 108.575,118.833 108.667 C 118.833 108.758,118.646 108.833,118.417 108.833 C 118.157 108.833,118.000 108.928,118.000 109.083 C 118.000 109.239,117.843 109.333,117.583 109.333 C 117.354 109.333,117.167 109.408,117.167 109.500 C 117.167 109.592,116.726 109.667,116.177 109.667 C 115.632 109.667,115.140 109.742,115.083 109.833 C 115.027 109.925,114.464 110.000,113.833 110.000 C 113.202 110.000,112.640 109.925,112.583 109.833 C 112.527 109.742,112.035 109.667,111.490 109.667 C 110.941 109.667,110.500 109.592,110.500 109.500 C 110.500 109.408,110.237 109.333,109.917 109.333 C 109.509 109.333,109.333 109.258,109.333 109.083 C 109.333 108.935,109.180 108.833,108.956 108.833 C 108.749 108.833,108.439 108.646,108.266 108.417 C 108.094 108.187,107.842 108.000,107.707 108.000 C 107.571 108.000,107.137 107.662,106.741 107.250 C 106.346 106.837,105.943 106.500,105.845 106.500 C 105.747 106.500,105.667 106.388,105.667 106.250 C 105.667 106.112,105.592 106.000,105.500 106.000 C 105.408 106.000,105.333 105.861,105.333 105.690 C 105.333 105.520,105.146 105.239,104.917 105.067 C 104.687 104.895,104.500 104.585,104.500 104.377 C 104.500 104.153,104.399 104.000,104.250 104.000 C 104.094 104.000,104.000 103.843,104.000 103.583 C 104.000 103.354,103.925 103.167,103.833 103.167 C 103.742 103.167,103.667 102.904,103.667 102.583 C 103.667 102.263,103.601 102.000,103.521 102.000 C 103.441 102.000,103.328 101.700,103.269 101.333 C 103.211 100.967,103.089 100.667,102.998 100.667 C 102.907 100.667,102.833 100.217,102.833 99.667 C 102.833 99.111,102.759 98.667,102.667 98.667 C 102.556 98.667,102.500 85.944,102.500 60.833 L 102.500 23.000 95.167 23.000 L 87.833 23.000 87.833 62.250 M173.000 23.167 C 173.000 23.269,172.220 23.333,170.995 23.333 C 169.366 23.333,168.972 23.380,168.894 23.583 C 168.823 23.766,168.535 23.833,167.816 23.833 C 167.272 23.833,166.833 23.908,166.833 24.000 C 166.833 24.092,166.493 24.167,166.078 24.167 C 165.561 24.167,165.293 24.245,165.227 24.417 C 165.168 24.571,164.914 24.667,164.566 24.667 C 164.254 24.667,164.000 24.742,164.000 24.833 C 164.000 24.925,163.813 25.000,163.583 25.000 C 163.324 25.000,163.167 25.094,163.167 25.250 C 163.167 25.406,163.009 25.500,162.750 25.500 C 162.521 25.500,162.333 25.575,162.333 25.667 C 162.333 25.758,162.154 25.833,161.934 25.833 C 161.715 25.833,161.492 25.946,161.440 26.083 C 161.387 26.221,161.191 26.333,161.005 26.333 C 160.819 26.333,160.667 26.408,160.667 26.500 C 160.667 26.592,160.479 26.667,160.250 26.667 C 160.021 26.667,159.833 26.742,159.833 26.833 C 159.833 26.925,159.740 27.001,159.625 27.003 C 159.351 27.006,158.333 27.908,158.333 28.147 C 158.333 28.249,158.146 28.333,157.917 28.333 C 157.688 28.333,157.500 28.408,157.500 28.500 C 157.500 28.592,157.387 28.667,157.250 28.667 C 157.112 28.667,157.000 28.747,157.000 28.845 C 157.000 29.062,156.581 29.500,156.373 29.500 C 156.291 29.500,156.123 29.688,156.000 29.917 C 155.877 30.146,155.709 30.333,155.627 30.333 C 155.438 30.333,155.000 30.763,155.000 30.949 C 155.000 31.025,154.813 31.228,154.583 31.400 C 154.354 31.573,154.167 31.853,154.167 32.023 C 154.167 32.194,154.092 32.333,154.000 32.333 C 153.908 32.333,153.833 32.446,153.833 32.583 C 153.833 32.721,153.753 32.833,153.655 32.833 C 153.361 32.833,153.000 33.286,153.000 33.655 C 153.000 33.845,152.915 34.000,152.810 34.000 C 152.554 34.000,152.179 34.515,152.172 34.875 C 152.169 35.035,152.093 35.167,152.003 35.167 C 151.913 35.167,151.793 35.354,151.735 35.583 C 151.678 35.813,151.564 36.000,151.482 36.000 C 151.400 36.000,151.333 36.188,151.333 36.417 C 151.333 36.646,151.258 36.833,151.167 36.833 C 151.075 36.833,151.000 37.096,151.000 37.417 C 151.000 37.824,150.925 38.000,150.750 38.000 C 150.594 38.000,150.500 38.157,150.500 38.417 C 150.500 38.646,150.425 38.833,150.333 38.833 C 150.242 38.833,150.167 39.133,150.167 39.500 C 150.167 39.981,150.097 40.167,149.917 40.167 C 149.731 40.167,149.667 40.361,149.667 40.917 C 149.667 41.329,149.592 41.667,149.500 41.667 C 149.408 41.667,149.333 42.042,149.333 42.500 C 149.333 43.130,149.272 43.333,149.083 43.333 C 148.883 43.333,148.833 43.583,148.833 44.583 C 148.833 45.306,148.763 45.833,148.667 45.833 C 148.559 45.833,148.500 47.694,148.500 51.083 C 148.500 54.472,148.559 56.333,148.667 56.333 C 148.758 56.333,148.833 56.748,148.833 57.255 C 148.833 57.921,148.903 58.204,149.083 58.273 C 149.246 58.336,149.333 58.595,149.333 59.018 C 149.333 59.375,149.408 59.667,149.500 59.667 C 149.592 59.667,149.667 59.894,149.667 60.172 C 149.667 60.467,149.771 60.717,149.917 60.773 C 150.054 60.826,150.167 61.048,150.167 61.268 C 150.167 61.487,150.242 61.667,150.333 61.667 C 150.425 61.667,150.500 61.854,150.500 62.083 C 150.500 62.343,150.594 62.500,150.750 62.500 C 150.906 62.500,151.000 62.657,151.000 62.917 C 151.000 63.146,151.075 63.333,151.167 63.333 C 151.258 63.333,151.333 63.483,151.333 63.667 C 151.333 63.850,151.408 64.000,151.500 64.000 C 151.592 64.000,151.667 64.152,151.667 64.339 C 151.667 64.525,151.779 64.720,151.917 64.773 C 152.054 64.826,152.167 64.973,152.167 65.101 C 152.167 65.229,152.242 65.333,152.333 65.333 C 152.425 65.333,152.500 65.473,152.500 65.643 C 152.500 65.814,152.688 66.094,152.917 66.266 C 153.146 66.438,153.333 66.674,153.333 66.790 C 153.333 66.905,153.446 67.000,153.583 67.000 C 153.722 67.000,153.833 67.148,153.833 67.333 C 153.833 67.517,153.908 67.667,154.000 67.667 C 154.092 67.667,154.167 67.779,154.167 67.917 C 154.167 68.054,154.247 68.167,154.345 68.167 C 154.539 68.167,155.000 68.577,155.000 68.750 C 155.000 68.923,155.461 69.333,155.655 69.333 C 155.753 69.333,155.833 69.414,155.833 69.512 C 155.833 69.743,156.257 70.167,156.488 70.167 C 156.586 70.167,156.667 70.247,156.667 70.345 C 156.667 70.539,157.077 71.000,157.250 71.000 C 157.423 71.000,157.833 71.461,157.833 71.655 C 157.833 71.753,157.928 71.833,158.044 71.833 C 158.160 71.833,158.395 72.021,158.567 72.250 C 158.739 72.479,158.987 72.667,159.119 72.667 C 159.399 72.667,159.833 73.065,159.833 73.321 C 159.833 73.420,159.946 73.500,160.083 73.500 C 160.221 73.500,160.333 73.575,160.333 73.667 C 160.333 73.758,160.521 73.833,160.750 73.833 C 160.979 73.833,161.167 73.914,161.167 74.012 C 161.167 74.286,161.609 74.667,161.927 74.667 C 162.084 74.667,162.386 74.854,162.598 75.083 C 162.810 75.312,163.100 75.500,163.242 75.500 C 163.384 75.500,163.500 75.575,163.500 75.667 C 163.500 75.758,163.688 75.833,163.917 75.833 C 164.176 75.833,164.333 75.928,164.333 76.083 C 164.333 76.239,164.491 76.333,164.750 76.333 C 164.979 76.333,165.167 76.408,165.167 76.500 C 165.167 76.592,165.279 76.667,165.417 76.667 C 165.554 76.667,165.667 76.779,165.667 76.917 C 165.667 77.091,165.843 77.167,166.250 77.167 C 166.571 77.167,166.833 77.242,166.833 77.333 C 166.833 77.425,167.021 77.500,167.250 77.500 C 167.509 77.500,167.667 77.594,167.667 77.750 C 167.667 77.906,167.824 78.000,168.083 78.000 C 168.313 78.000,168.500 78.075,168.500 78.167 C 168.500 78.258,168.688 78.333,168.917 78.333 C 169.146 78.333,169.333 78.408,169.333 78.500 C 169.333 78.592,169.596 78.667,169.917 78.667 C 170.324 78.667,170.500 78.742,170.500 78.917 C 170.500 79.072,170.657 79.167,170.917 79.167 C 171.146 79.167,171.333 79.242,171.333 79.333 C 171.333 79.425,171.588 79.500,171.899 79.500 C 172.248 79.500,172.501 79.596,172.560 79.750 C 172.616 79.896,172.866 80.000,173.161 80.000 C 173.439 80.000,173.667 80.075,173.667 80.167 C 173.667 80.258,173.846 80.333,174.066 80.333 C 174.285 80.333,174.508 80.446,174.560 80.583 C 174.613 80.721,174.809 80.833,174.995 80.833 C 175.181 80.833,175.333 80.908,175.333 81.000 C 175.333 81.092,175.521 81.167,175.750 81.167 C 175.979 81.167,176.167 81.240,176.167 81.330 C 176.167 81.420,176.354 81.541,176.583 81.598 C 176.813 81.656,177.000 81.770,177.000 81.851 C 177.000 81.933,177.170 82.000,177.377 82.000 C 177.585 82.000,177.895 82.187,178.067 82.417 C 178.239 82.646,178.520 82.833,178.690 82.833 C 178.861 82.833,179.000 82.908,179.000 83.000 C 179.000 83.092,179.112 83.167,179.250 83.167 C 179.387 83.167,179.500 83.247,179.500 83.345 C 179.500 83.639,179.952 84.000,180.321 84.000 C 180.511 84.000,180.667 84.080,180.667 84.179 C 180.667 84.396,181.085 84.833,181.293 84.833 C 181.376 84.833,181.544 85.021,181.667 85.250 C 181.789 85.479,181.957 85.667,182.040 85.667 C 182.248 85.667,182.667 86.104,182.667 86.321 C 182.667 86.420,182.779 86.500,182.917 86.500 C 183.057 86.500,183.167 86.649,183.167 86.841 C 183.167 87.028,183.354 87.369,183.583 87.598 C 183.813 87.828,184.000 88.108,184.000 88.221 C 184.000 88.334,184.150 88.535,184.333 88.667 C 184.517 88.799,184.667 89.078,184.667 89.287 C 184.667 89.513,184.768 89.667,184.917 89.667 C 185.097 89.667,185.167 89.852,185.167 90.333 C 185.167 90.700,185.242 91.000,185.333 91.000 C 185.440 91.000,185.500 92.611,185.500 95.500 C 185.500 98.389,185.440 100.000,185.333 100.000 C 185.242 100.000,185.167 100.329,185.167 100.732 C 185.167 101.229,185.086 101.495,184.917 101.560 C 184.760 101.620,184.667 101.875,184.667 102.245 C 184.667 102.568,184.592 102.833,184.500 102.833 C 184.408 102.833,184.333 103.021,184.333 103.250 C 184.333 103.479,184.277 103.667,184.208 103.668 C 184.041 103.669,183.500 104.633,183.500 104.930 C 183.500 105.060,183.425 105.167,183.333 105.167 C 183.242 105.167,183.167 105.279,183.167 105.417 C 183.167 105.554,183.054 105.667,182.917 105.667 C 182.775 105.667,182.667 105.816,182.667 106.012 C 182.667 106.339,182.315 106.833,182.083 106.833 C 181.910 106.833,181.500 107.294,181.500 107.488 C 181.500 107.586,181.387 107.667,181.250 107.667 C 181.112 107.667,181.000 107.742,181.000 107.833 C 181.000 107.925,180.850 108.000,180.667 108.000 C 180.481 108.000,180.333 108.111,180.333 108.250 C 180.333 108.388,180.221 108.500,180.083 108.500 C 179.946 108.500,179.833 108.575,179.833 108.667 C 179.833 108.758,179.646 108.833,179.417 108.833 C 179.157 108.833,179.000 108.928,179.000 109.083 C 179.000 109.258,178.824 109.333,178.417 109.333 C 178.096 109.333,177.833 109.408,177.833 109.500 C 177.833 109.593,177.389 109.667,176.833 109.667 C 176.278 109.667,175.833 109.741,175.833 109.833 C 175.833 109.930,175.306 110.000,174.583 110.000 C 173.861 110.000,173.333 109.930,173.333 109.833 C 173.333 109.741,172.889 109.667,172.333 109.667 C 171.778 109.667,171.333 109.593,171.333 109.500 C 171.333 109.408,171.154 109.333,170.934 109.333 C 170.715 109.333,170.492 109.221,170.440 109.083 C 170.387 108.946,170.191 108.833,170.005 108.833 C 169.819 108.833,169.667 108.758,169.667 108.667 C 169.667 108.575,169.479 108.500,169.250 108.500 C 168.991 108.500,168.833 108.406,168.833 108.250 C 168.833 108.110,168.684 108.000,168.494 108.000 C 168.307 108.000,167.826 107.663,167.425 107.250 C 167.024 106.837,166.615 106.500,166.515 106.500 C 166.415 106.500,166.333 106.313,166.333 106.083 C 166.333 105.854,166.258 105.667,166.167 105.667 C 166.075 105.667,166.000 105.554,166.000 105.417 C 166.000 105.279,165.887 105.167,165.750 105.167 C 165.594 105.167,165.500 105.009,165.500 104.750 C 165.500 104.521,165.425 104.333,165.333 104.333 C 165.242 104.333,165.167 104.183,165.167 104.000 C 165.167 103.817,165.100 103.667,165.018 103.667 C 164.936 103.667,164.822 103.479,164.765 103.250 C 164.707 103.021,164.587 102.833,164.497 102.833 C 164.407 102.833,164.333 102.646,164.333 102.417 C 164.333 102.188,164.258 102.000,164.167 102.000 C 164.075 102.000,164.000 101.625,164.000 101.167 C 164.000 100.537,163.939 100.333,163.750 100.333 C 163.534 100.333,163.500 99.722,163.500 95.833 L 163.500 91.333 156.000 91.333 L 148.500 91.333 148.500 96.000 C 148.500 99.000,148.560 100.667,148.667 100.667 C 148.762 100.667,148.833 101.168,148.833 101.839 C 148.833 102.727,148.894 103.034,149.083 103.106 C 149.252 103.171,149.333 103.436,149.333 103.925 C 149.333 104.322,149.408 104.693,149.500 104.750 C 149.592 104.807,149.667 105.111,149.667 105.427 C 149.667 105.825,149.743 106.000,149.917 106.000 C 150.091 106.000,150.167 106.176,150.167 106.583 C 150.167 106.904,150.242 107.167,150.333 107.167 C 150.425 107.167,150.500 107.432,150.500 107.755 C 150.500 108.125,150.593 108.380,150.750 108.440 C 150.887 108.492,151.000 108.715,151.000 108.934 C 151.000 109.154,151.075 109.333,151.167 109.333 C 151.258 109.333,151.333 109.483,151.333 109.667 C 151.333 109.850,151.408 110.000,151.500 110.000 C 151.592 110.000,151.667 110.188,151.667 110.417 C 151.667 110.676,151.761 110.833,151.917 110.833 C 152.072 110.833,152.167 110.991,152.167 111.250 C 152.167 111.479,152.242 111.667,152.333 111.667 C 152.425 111.667,152.500 111.819,152.500 112.005 C 152.500 112.191,152.612 112.387,152.750 112.440 C 152.887 112.492,153.000 112.640,153.000 112.768 C 153.000 112.896,153.075 113.000,153.167 113.000 C 153.258 113.000,153.333 113.150,153.333 113.333 C 153.333 113.519,153.444 113.667,153.583 113.667 C 153.721 113.667,153.833 113.747,153.833 113.845 C 153.833 114.076,154.257 114.500,154.488 114.500 C 154.586 114.500,154.667 114.612,154.667 114.750 C 154.667 114.888,154.742 115.000,154.833 115.000 C 154.925 115.000,155.000 115.118,155.000 115.263 C 155.000 115.605,156.395 117.000,156.737 117.000 C 156.882 117.000,157.000 117.075,157.000 117.167 C 157.000 117.258,157.112 117.333,157.250 117.333 C 157.387 117.333,157.500 117.414,157.500 117.512 C 157.500 117.743,157.924 118.167,158.155 118.167 C 158.253 118.167,158.333 118.279,158.333 118.417 C 158.333 118.556,158.481 118.667,158.667 118.667 C 158.850 118.667,159.000 118.742,159.000 118.833 C 159.000 118.925,159.104 119.000,159.232 119.000 C 159.360 119.000,159.508 119.112,159.560 119.250 C 159.613 119.388,159.809 119.500,159.995 119.500 C 160.181 119.500,160.333 119.575,160.333 119.667 C 160.333 119.758,160.521 119.833,160.750 119.833 C 160.979 119.833,161.167 119.900,161.167 119.982 C 161.167 120.064,161.354 120.178,161.583 120.235 C 161.813 120.293,162.000 120.413,162.000 120.503 C 162.000 120.593,162.150 120.667,162.333 120.667 C 162.517 120.667,162.667 120.742,162.667 120.833 C 162.667 120.925,162.846 121.000,163.066 121.000 C 163.285 121.000,163.508 121.112,163.560 121.250 C 163.620 121.407,163.875 121.500,164.245 121.500 C 164.568 121.500,164.833 121.575,164.833 121.667 C 164.833 121.758,165.088 121.833,165.399 121.833 C 165.748 121.833,166.001 121.929,166.060 122.083 C 166.126 122.255,166.394 122.333,166.911 122.333 C 167.327 122.333,167.667 122.408,167.667 122.500 C 167.667 122.598,168.250 122.667,169.083 122.667 C 170.231 122.667,170.500 122.714,170.500 122.917 C 170.500 123.293,178.462 123.293,178.606 122.917 C 178.680 122.724,179.001 122.667,180.008 122.667 C 180.726 122.667,181.360 122.592,181.417 122.500 C 181.473 122.408,181.845 122.333,182.242 122.333 C 182.730 122.333,182.995 122.252,183.060 122.083 C 183.120 121.926,183.375 121.833,183.745 121.833 C 184.068 121.833,184.333 121.758,184.333 121.667 C 184.333 121.575,184.596 121.500,184.917 121.500 C 185.324 121.500,185.500 121.425,185.500 121.250 C 185.500 121.094,185.657 121.000,185.917 121.000 C 186.146 121.000,186.333 120.925,186.333 120.833 C 186.333 120.742,186.513 120.667,186.732 120.667 C 186.952 120.667,187.174 120.554,187.227 120.417 C 187.280 120.279,187.475 120.167,187.661 120.167 C 187.848 120.167,188.000 120.092,188.000 120.000 C 188.000 119.908,188.188 119.833,188.417 119.833 C 188.646 119.833,188.833 119.758,188.833 119.667 C 188.833 119.575,188.973 119.500,189.143 119.500 C 189.314 119.500,189.594 119.313,189.766 119.083 C 189.939 118.854,190.249 118.667,190.456 118.667 C 190.664 118.667,190.833 118.586,190.833 118.488 C 190.833 118.257,191.257 117.833,191.488 117.833 C 191.586 117.833,191.667 117.721,191.667 117.583 C 191.667 117.442,191.816 117.333,192.012 117.333 C 192.365 117.333,192.833 116.976,192.833 116.707 C 192.833 116.624,193.013 116.460,193.232 116.343 C 193.451 116.226,193.726 115.951,193.843 115.732 C 193.960 115.513,194.156 115.333,194.278 115.333 C 194.400 115.333,194.500 115.178,194.500 114.988 C 194.500 114.619,194.861 114.167,195.155 114.167 C 195.253 114.167,195.333 114.054,195.333 113.917 C 195.333 113.779,195.408 113.667,195.500 113.667 C 195.592 113.667,195.667 113.551,195.667 113.409 C 195.667 113.267,195.854 112.977,196.083 112.765 C 196.313 112.552,196.500 112.218,196.500 112.023 C 196.500 111.817,196.606 111.667,196.750 111.667 C 196.906 111.667,197.000 111.509,197.000 111.250 C 197.000 111.021,197.075 110.833,197.167 110.833 C 197.258 110.833,197.333 110.646,197.333 110.417 C 197.333 110.157,197.428 110.000,197.583 110.000 C 197.722 110.000,197.833 109.852,197.833 109.667 C 197.833 109.483,197.908 109.333,198.000 109.333 C 198.092 109.333,198.167 109.146,198.167 108.917 C 198.167 108.688,198.242 108.500,198.333 108.500 C 198.425 108.500,198.500 108.200,198.500 107.833 C 198.500 107.352,198.569 107.167,198.750 107.167 C 198.925 107.167,199.000 106.991,199.000 106.583 C 199.000 106.263,199.075 106.000,199.167 106.000 C 199.258 106.000,199.333 105.737,199.333 105.417 C 199.333 105.009,199.409 104.833,199.583 104.833 C 199.772 104.833,199.833 104.630,199.833 104.000 C 199.833 103.542,199.908 103.167,200.000 103.167 C 200.096 103.167,200.167 102.639,200.167 101.917 C 200.167 100.917,200.217 100.667,200.417 100.667 C 200.634 100.667,200.667 99.926,200.667 95.000 C 200.667 90.074,200.634 89.333,200.417 89.333 C 200.222 89.333,200.167 89.111,200.167 88.333 C 200.167 87.778,200.093 87.333,200.000 87.333 C 199.908 87.333,199.833 87.068,199.833 86.745 C 199.833 86.375,199.740 86.120,199.583 86.060 C 199.429 86.001,199.333 85.748,199.333 85.399 C 199.333 85.088,199.258 84.833,199.167 84.833 C 199.075 84.833,199.000 84.646,199.000 84.417 C 199.000 84.157,198.906 84.000,198.750 84.000 C 198.594 84.000,198.500 83.843,198.500 83.583 C 198.500 83.354,198.425 83.167,198.333 83.167 C 198.242 83.167,198.167 83.066,198.167 82.942 C 198.167 82.608,197.666 81.667,197.488 81.667 C 197.403 81.667,197.333 81.554,197.333 81.417 C 197.333 81.279,197.258 81.167,197.167 81.167 C 197.075 81.167,197.000 81.027,197.000 80.857 C 197.000 80.686,196.813 80.406,196.583 80.234 C 196.354 80.062,196.165 79.807,196.164 79.669 C 196.162 79.530,195.975 79.240,195.747 79.024 C 195.520 78.808,195.333 78.565,195.333 78.483 C 195.333 78.400,195.253 78.333,195.155 78.333 C 194.861 78.333,194.500 77.881,194.500 77.512 C 194.500 77.316,194.392 77.167,194.250 77.167 C 194.112 77.167,194.000 77.092,194.000 77.000 C 194.000 76.723,192.648 75.500,192.341 75.500 C 192.185 75.500,191.956 75.313,191.833 75.083 C 191.711 74.854,191.543 74.667,191.460 74.667 C 191.252 74.667,190.833 74.229,190.833 74.012 C 190.833 73.914,190.721 73.833,190.583 73.833 C 190.446 73.833,190.333 73.758,190.333 73.667 C 190.333 73.575,190.183 73.500,190.000 73.500 C 189.815 73.500,189.667 73.389,189.667 73.250 C 189.667 73.112,189.588 73.000,189.492 73.000 C 189.397 73.000,189.131 72.813,188.902 72.583 C 188.672 72.354,188.376 72.167,188.242 72.167 C 188.109 72.167,188.000 72.092,188.000 72.000 C 188.000 71.908,187.840 71.833,187.644 71.833 C 187.448 71.833,187.114 71.646,186.902 71.417 C 186.690 71.188,186.400 71.000,186.258 71.000 C 186.116 71.000,186.000 70.925,186.000 70.833 C 186.000 70.742,185.813 70.667,185.583 70.667 C 185.324 70.667,185.167 70.572,185.167 70.417 C 185.167 70.261,185.009 70.167,184.750 70.167 C 184.521 70.167,184.333 70.092,184.333 70.000 C 184.333 69.908,184.229 69.833,184.101 69.833 C 183.973 69.833,183.826 69.721,183.773 69.583 C 183.717 69.437,183.467 69.333,183.172 69.333 C 182.894 69.333,182.667 69.258,182.667 69.167 C 182.667 69.075,182.479 69.000,182.250 69.000 C 181.991 69.000,181.833 68.906,181.833 68.750 C 181.833 68.594,181.676 68.500,181.417 68.500 C 181.188 68.500,181.000 68.425,181.000 68.333 C 181.000 68.242,180.813 68.167,180.583 68.167 C 180.354 68.167,180.167 68.092,180.167 68.000 C 180.167 67.908,179.904 67.833,179.583 67.833 C 179.176 67.833,179.000 67.758,179.000 67.583 C 179.000 67.409,178.824 67.333,178.417 67.333 C 178.096 67.333,177.833 67.258,177.833 67.167 C 177.833 67.075,177.533 67.000,177.167 67.000 C 176.685 67.000,176.500 66.931,176.500 66.750 C 176.500 66.594,176.343 66.500,176.083 66.500 C 175.854 66.500,175.667 66.425,175.667 66.333 C 175.667 66.242,175.404 66.167,175.083 66.167 C 174.676 66.167,174.500 66.091,174.500 65.917 C 174.500 65.761,174.343 65.667,174.083 65.667 C 173.854 65.667,173.667 65.592,173.667 65.500 C 173.667 65.408,173.479 65.333,173.250 65.333 C 173.021 65.333,172.833 65.264,172.833 65.179 C 172.833 65.001,171.892 64.500,171.558 64.500 C 171.434 64.500,171.333 64.425,171.333 64.333 C 171.333 64.242,171.221 64.167,171.083 64.167 C 170.946 64.167,170.833 64.054,170.833 63.917 C 170.833 63.768,170.680 63.667,170.456 63.667 C 170.249 63.667,169.939 63.479,169.766 63.250 C 169.594 63.021,169.351 62.833,169.225 62.833 C 169.100 62.833,168.474 62.308,167.833 61.667 C 167.193 61.025,166.593 60.500,166.501 60.500 C 166.409 60.500,166.333 60.420,166.333 60.321 C 166.333 60.091,165.909 59.667,165.679 59.667 C 165.580 59.667,165.500 59.479,165.500 59.250 C 165.500 59.021,165.425 58.833,165.333 58.833 C 165.242 58.833,165.167 58.721,165.167 58.583 C 165.167 58.446,165.092 58.333,165.000 58.333 C 164.908 58.333,164.833 58.183,164.833 58.000 C 164.833 57.815,164.722 57.667,164.583 57.667 C 164.428 57.667,164.333 57.509,164.333 57.250 C 164.333 57.021,164.258 56.833,164.167 56.833 C 164.075 56.833,164.000 56.646,164.000 56.417 C 164.000 56.157,163.906 56.000,163.750 56.000 C 163.533 56.000,163.500 55.326,163.500 50.934 C 163.500 46.586,163.535 45.855,163.750 45.773 C 163.907 45.713,164.000 45.458,164.000 45.089 C 164.000 44.765,164.075 44.500,164.167 44.500 C 164.258 44.500,164.333 44.237,164.333 43.917 C 164.333 43.509,164.409 43.333,164.583 43.333 C 164.739 43.333,164.833 43.176,164.833 42.917 C 164.833 42.688,164.908 42.500,165.000 42.500 C 165.092 42.500,165.167 42.330,165.167 42.123 C 165.167 41.915,165.354 41.605,165.583 41.433 C 165.813 41.261,166.000 40.980,166.000 40.810 C 166.000 40.639,166.075 40.500,166.167 40.500 C 166.258 40.500,166.333 40.387,166.333 40.250 C 166.333 40.112,166.415 40.000,166.515 40.000 C 166.615 40.000,167.024 39.663,167.425 39.250 C 167.826 38.837,168.259 38.500,168.387 38.500 C 168.515 38.500,168.761 38.313,168.933 38.083 C 169.105 37.854,169.415 37.667,169.623 37.667 C 169.847 37.667,170.000 37.565,170.000 37.417 C 170.000 37.243,170.175 37.167,170.573 37.167 C 170.889 37.167,171.193 37.092,171.250 37.000 C 171.307 36.908,171.686 36.833,172.093 36.833 C 172.500 36.833,172.833 36.758,172.833 36.667 C 172.833 36.567,173.500 36.500,174.500 36.500 C 175.500 36.500,176.167 36.567,176.167 36.667 C 176.167 36.759,176.611 36.833,177.167 36.833 C 177.722 36.833,178.167 36.907,178.167 37.000 C 178.167 37.092,178.354 37.167,178.583 37.167 C 178.843 37.167,179.000 37.261,179.000 37.417 C 179.000 37.572,179.157 37.667,179.417 37.667 C 179.646 37.667,179.833 37.742,179.833 37.833 C 179.833 37.925,180.021 38.000,180.250 38.000 C 180.479 38.000,180.667 38.080,180.667 38.179 C 180.667 38.409,181.091 38.833,181.321 38.833 C 181.420 38.833,181.500 38.914,181.500 39.012 C 181.500 39.206,181.910 39.667,182.083 39.667 C 182.256 39.667,182.667 40.127,182.667 40.321 C 182.667 40.420,182.779 40.500,182.917 40.500 C 183.066 40.500,183.167 40.653,183.167 40.880 C 183.167 41.089,183.317 41.368,183.500 41.500 C 183.683 41.632,183.833 41.876,183.833 42.042 C 183.833 42.208,183.946 42.387,184.083 42.440 C 184.221 42.492,184.333 42.715,184.333 42.934 C 184.333 43.154,184.408 43.333,184.500 43.333 C 184.592 43.333,184.667 43.596,184.667 43.917 C 184.667 44.324,184.742 44.500,184.917 44.500 C 185.106 44.500,185.167 44.704,185.167 45.333 C 185.167 45.792,185.240 46.167,185.331 46.167 C 185.433 46.167,185.511 47.843,185.539 50.625 L 185.583 55.083 193.083 55.083 L 200.583 55.083 200.628 50.287 C 200.666 46.129,200.638 45.479,200.419 45.395 C 200.227 45.321,200.167 45.021,200.167 44.149 C 200.167 43.494,200.095 43.000,200.000 43.000 C 199.908 43.000,199.833 42.660,199.833 42.245 C 199.833 41.727,199.755 41.459,199.583 41.394 C 199.429 41.334,199.333 41.081,199.333 40.732 C 199.333 40.421,199.258 40.167,199.167 40.167 C 199.075 40.167,199.000 39.867,199.000 39.500 C 199.000 39.019,198.931 38.833,198.750 38.833 C 198.594 38.833,198.500 38.676,198.500 38.417 C 198.500 38.188,198.425 38.000,198.333 38.000 C 198.242 38.000,198.167 37.737,198.167 37.417 C 198.167 37.096,198.100 36.833,198.018 36.833 C 197.936 36.833,197.822 36.646,197.765 36.417 C 197.707 36.188,197.587 36.000,197.497 36.000 C 197.407 36.000,197.333 35.813,197.333 35.583 C 197.333 35.354,197.258 35.167,197.167 35.167 C 197.075 35.167,197.000 35.027,197.000 34.857 C 197.000 34.686,196.813 34.406,196.583 34.234 C 196.354 34.061,196.167 33.751,196.167 33.544 C 196.167 33.336,196.086 33.167,195.988 33.167 C 195.694 33.167,195.333 32.714,195.333 32.345 C 195.333 32.149,195.225 32.000,195.083 32.000 C 194.946 32.000,194.833 31.921,194.833 31.825 C 194.833 31.597,192.403 29.167,192.175 29.167 C 192.079 29.167,192.000 29.086,192.000 28.988 C 192.000 28.757,191.576 28.333,191.345 28.333 C 191.247 28.333,191.167 28.221,191.167 28.083 C 191.167 27.944,191.019 27.833,190.833 27.833 C 190.650 27.833,190.500 27.758,190.500 27.667 C 190.500 27.575,190.396 27.500,190.268 27.500 C 190.140 27.500,189.992 27.387,189.940 27.250 C 189.887 27.113,189.691 27.000,189.505 27.000 C 189.319 27.000,189.167 26.925,189.167 26.833 C 189.167 26.742,188.997 26.667,188.790 26.667 C 188.582 26.667,188.272 26.479,188.100 26.250 C 187.893 25.976,187.624 25.833,187.310 25.833 C 187.048 25.833,186.833 25.758,186.833 25.667 C 186.833 25.575,186.646 25.500,186.417 25.500 C 186.157 25.500,186.000 25.406,186.000 25.250 C 186.000 25.094,185.843 25.000,185.583 25.000 C 185.354 25.000,185.167 24.925,185.167 24.833 C 185.167 24.742,184.867 24.667,184.500 24.667 C 184.019 24.667,183.833 24.597,183.833 24.417 C 183.833 24.231,183.639 24.167,183.083 24.167 C 182.671 24.167,182.333 24.092,182.333 24.000 C 182.333 23.906,181.861 23.833,181.250 23.833 C 180.398 23.833,180.167 23.780,180.167 23.583 C 180.167 23.375,179.833 23.333,178.167 23.333 C 176.944 23.333,176.167 23.269,176.167 23.167 C 176.167 23.067,175.528 23.000,174.583 23.000 C 173.639 23.000,173.000 23.067,173.000 23.167 M211.208 73.040 L 211.250 123.083 218.750 123.083 L 226.250 123.083 226.292 101.542 L 226.335 80.000 237.334 80.000 L 248.333 80.000 248.333 101.583 L 248.333 123.167 255.833 123.167 L 263.333 123.167 263.333 73.083 L 263.333 23.000 255.833 23.000 L 248.333 23.000 248.333 44.750 L 248.333 66.500 237.334 66.500 L 226.335 66.500 226.292 44.792 L 226.250 23.083 218.708 23.040 L 211.166 22.997 211.208 73.040 M274.333 73.083 L 274.333 123.167 281.667 123.167 L 289.000 123.167 289.000 73.083 L 289.000 23.000 281.667 23.000 L 274.333 23.000 274.333 73.083 M299.667 73.083 L 299.667 123.167 322.669 123.167 L 345.671 123.167 345.627 116.625 L 345.583 110.083 330.125 110.041 L 314.667 109.998 314.667 94.999 L 314.667 80.000 326.250 80.000 L 337.833 80.000 337.833 73.250 L 337.833 66.500 326.250 66.500 L 314.667 66.500 314.667 51.501 L 314.667 36.502 330.125 36.459 L 345.583 36.417 345.627 29.708 L 345.670 23.000 322.669 23.000 L 299.667 23.000 299.667 73.083 " stroke="none" fill="#fcfcfc" fill-rule="evenodd"></path><path id="path1" d="M368.833 97.417 C 368.833 97.646,368.758 97.833,368.667 97.833 C 368.575 97.833,368.500 98.133,368.500 98.500 C 368.500 98.981,368.431 99.167,368.250 99.167 C 368.079 99.167,368.000 99.338,368.000 99.710 C 368.000 100.094,367.879 100.345,367.590 100.562 C 367.236 100.828,367.181 101.000,367.191 101.804 C 367.197 102.348,367.125 102.764,367.018 102.800 C 366.903 102.838,366.833 103.382,366.833 104.246 C 366.833 105.299,366.776 105.653,366.593 105.723 C 366.285 105.841,366.325 108.358,366.636 108.462 C 366.752 108.501,366.833 108.862,366.833 109.342 C 366.833 109.997,366.785 110.137,366.583 110.060 C 366.446 110.008,366.333 109.822,366.333 109.649 C 366.333 109.475,366.258 109.333,366.167 109.333 C 366.075 109.333,366.000 109.146,366.000 108.917 C 366.000 108.657,365.906 108.500,365.750 108.500 C 365.594 108.500,365.500 108.343,365.500 108.083 C 365.500 107.854,365.434 107.667,365.352 107.667 C 365.271 107.667,365.080 107.404,364.928 107.083 C 364.776 106.763,364.580 106.500,364.492 106.500 C 364.405 106.500,364.333 106.388,364.333 106.250 C 364.333 106.112,364.264 106.000,364.178 106.000 C 364.093 106.000,363.999 105.831,363.970 105.625 C 363.936 105.384,363.783 105.231,363.542 105.197 C 363.270 105.158,363.167 105.032,363.167 104.738 C 363.167 104.516,363.093 104.333,363.002 104.333 C 362.785 104.333,361.167 102.719,361.167 102.502 C 361.167 102.409,361.054 102.333,360.917 102.333 C 360.775 102.333,360.667 102.184,360.667 101.988 C 360.667 101.619,360.306 101.167,360.012 101.167 C 359.914 101.167,359.833 100.979,359.833 100.750 C 359.833 100.385,359.761 100.333,359.250 100.333 C 358.666 100.333,358.315 101.355,358.839 101.530 C 358.937 101.562,359.019 102.153,359.027 102.890 C 359.038 103.830,359.106 104.218,359.271 104.281 C 359.411 104.335,359.500 104.622,359.500 105.018 C 359.500 105.375,359.575 105.667,359.667 105.667 C 359.758 105.667,359.833 105.894,359.833 106.172 C 359.833 106.467,359.937 106.717,360.083 106.773 C 360.238 106.832,360.333 107.086,360.333 107.434 C 360.333 107.746,360.408 108.000,360.500 108.000 C 360.592 108.000,360.667 108.188,360.667 108.417 C 360.667 108.676,360.761 108.833,360.917 108.833 C 361.054 108.833,361.167 108.946,361.167 109.083 C 361.167 109.221,361.242 109.333,361.333 109.333 C 361.425 109.333,361.500 109.483,361.500 109.667 C 361.500 109.850,361.574 110.000,361.663 110.000 C 361.753 110.000,361.874 110.188,361.932 110.417 C 361.989 110.646,362.103 110.833,362.185 110.833 C 362.266 110.833,362.333 110.946,362.333 111.083 C 362.333 111.221,362.221 111.333,362.083 111.333 C 361.946 111.333,361.833 111.221,361.833 111.083 C 361.833 110.928,361.676 110.833,361.417 110.833 C 361.188 110.833,361.000 110.758,361.000 110.667 C 361.000 110.575,360.671 110.500,360.268 110.500 C 359.771 110.500,359.505 110.420,359.440 110.250 C 359.374 110.079,359.106 110.000,358.589 110.000 C 358.173 110.000,357.833 109.925,357.833 109.833 C 357.833 109.742,357.571 109.667,357.250 109.667 C 356.929 109.667,356.667 109.592,356.667 109.500 C 356.667 109.408,356.362 109.333,355.989 109.333 C 355.179 109.333,355.001 110.358,355.792 110.470 C 355.998 110.499,356.167 110.593,356.167 110.678 C 356.167 110.764,356.279 110.833,356.417 110.833 C 356.554 110.833,356.667 110.914,356.667 111.012 C 356.667 111.243,357.091 111.667,357.321 111.667 C 357.420 111.667,357.500 111.747,357.500 111.845 C 357.500 112.076,357.924 112.500,358.155 112.500 C 358.253 112.500,358.333 112.578,358.333 112.674 C 358.333 112.900,359.100 113.667,359.326 113.667 C 359.422 113.667,359.500 113.747,359.500 113.845 C 359.500 114.139,359.952 114.500,360.321 114.500 C 360.517 114.500,360.667 114.608,360.667 114.750 C 360.667 114.906,360.824 115.000,361.083 115.000 C 361.313 115.000,361.500 115.075,361.500 115.167 C 361.500 115.258,361.688 115.333,361.917 115.333 C 362.250 115.333,362.333 115.417,362.333 115.750 C 362.333 116.083,362.250 116.167,361.917 116.167 C 361.688 116.167,361.500 116.247,361.500 116.345 C 361.500 116.615,361.059 117.000,360.751 117.000 C 360.359 117.000,358.667 118.746,358.667 119.151 C 358.667 119.578,361.286 119.650,361.448 119.228 C 361.510 119.066,361.864 119.000,362.675 119.000 C 363.301 119.000,363.860 118.925,363.917 118.833 C 364.106 118.526,364.333 118.662,364.333 119.083 C 364.333 119.313,364.258 119.500,364.167 119.500 C 364.074 119.500,364.000 119.944,364.000 120.500 C 364.000 121.705,364.272 121.814,365.082 120.930 C 365.413 120.568,365.828 120.318,366.218 120.245 C 366.557 120.181,366.833 120.063,366.833 119.981 C 366.833 119.900,367.015 119.833,367.236 119.833 C 367.458 119.833,367.683 119.740,367.736 119.625 C 367.814 119.458,367.853 119.458,367.931 119.625 C 367.984 119.740,368.102 119.833,368.192 119.833 C 368.584 119.833,368.833 120.348,368.833 121.157 C 368.833 121.623,368.904 122.135,368.990 122.294 C 369.076 122.453,369.190 122.790,369.243 123.042 C 369.326 123.435,369.421 123.500,369.920 123.500 L 370.500 123.500 370.500 122.500 C 370.500 121.722,370.444 121.500,370.250 121.500 C 370.061 121.500,370.000 121.296,370.000 120.667 C 370.000 120.208,369.925 119.833,369.833 119.833 C 369.742 119.833,369.667 119.709,369.667 119.558 C 369.667 119.301,369.688 119.301,369.971 119.558 C 370.139 119.709,370.402 119.833,370.555 119.833 C 370.708 119.833,370.833 119.908,370.833 120.000 C 370.833 120.092,370.946 120.167,371.083 120.167 C 371.221 120.167,371.333 120.247,371.333 120.345 C 371.333 120.576,371.757 121.000,371.988 121.000 C 372.086 121.000,372.167 121.112,372.167 121.250 C 372.167 121.389,372.315 121.500,372.500 121.500 C 372.796 121.500,372.833 121.389,372.833 120.500 C 372.833 119.722,372.889 119.500,373.083 119.500 C 373.221 119.500,373.333 119.575,373.333 119.667 C 373.333 119.759,373.778 119.833,374.333 119.833 C 374.889 119.833,375.333 119.907,375.333 120.000 C 375.333 120.092,375.737 120.167,376.230 120.167 C 376.823 120.167,377.196 120.251,377.333 120.417 C 377.677 120.831,379.000 120.755,379.000 120.321 C 379.000 119.952,378.639 119.500,378.345 119.500 C 378.247 119.500,378.167 119.420,378.167 119.321 C 378.167 119.091,377.743 118.667,377.512 118.667 C 377.414 118.667,377.333 118.586,377.333 118.488 C 377.333 118.194,376.881 117.833,376.512 117.833 C 376.322 117.833,376.167 117.734,376.167 117.611 C 376.167 117.489,375.979 117.289,375.750 117.167 C 375.521 117.044,375.333 116.881,375.333 116.805 C 375.333 116.729,374.990 116.667,374.571 116.667 C 373.894 116.667,373.837 116.639,374.060 116.417 C 374.222 116.254,374.635 116.167,375.238 116.167 C 375.749 116.167,376.167 116.092,376.167 116.000 C 376.167 115.908,376.354 115.833,376.583 115.833 C 376.843 115.833,377.000 115.739,377.000 115.583 C 377.000 115.428,377.157 115.333,377.417 115.333 C 377.646 115.333,377.833 115.258,377.833 115.167 C 377.833 115.075,377.986 115.000,378.172 115.000 C 378.358 115.000,378.554 114.888,378.606 114.750 C 378.659 114.612,378.840 114.500,379.008 114.500 C 379.176 114.500,379.360 114.425,379.417 114.333 C 379.473 114.242,379.665 114.167,379.843 114.167 C 380.021 114.167,380.167 114.054,380.167 113.917 C 380.167 113.761,380.324 113.667,380.583 113.667 C 380.813 113.667,381.000 113.592,381.000 113.500 C 381.000 113.408,381.375 113.333,381.833 113.333 C 382.729 113.333,382.975 112.951,382.429 112.405 C 382.138 112.114,375.000 112.046,375.000 112.333 C 375.000 112.425,374.746 112.500,374.434 112.500 C 374.086 112.500,373.832 112.596,373.773 112.750 C 373.720 112.888,373.525 113.000,373.339 113.000 C 373.152 113.000,373.000 113.075,373.000 113.167 C 373.000 113.258,372.887 113.333,372.750 113.333 C 372.343 113.333,372.465 113.015,372.917 112.902 C 373.177 112.836,373.333 112.679,373.333 112.482 C 373.333 112.309,373.408 112.167,373.500 112.167 C 373.592 112.167,373.667 111.979,373.667 111.750 C 373.667 111.417,373.750 111.333,374.083 111.333 C 374.417 111.333,374.500 111.250,374.500 110.917 C 374.500 110.657,374.594 110.500,374.750 110.500 C 374.887 110.500,375.000 110.388,375.000 110.250 C 375.000 110.112,375.075 110.000,375.167 110.000 C 375.258 110.000,375.333 109.858,375.333 109.684 C 375.333 109.511,375.446 109.326,375.583 109.273 C 375.721 109.220,375.833 109.025,375.833 108.839 C 375.833 108.652,375.908 108.500,376.000 108.500 C 376.092 108.500,376.167 108.313,376.167 108.083 C 376.167 107.854,376.242 107.667,376.333 107.667 C 376.425 107.667,376.500 107.554,376.500 107.417 C 376.500 107.279,376.613 107.167,376.750 107.167 C 376.906 107.167,377.000 107.009,377.000 106.750 C 377.000 106.521,377.075 106.333,377.167 106.333 C 377.258 106.333,377.333 106.071,377.333 105.750 C 377.333 105.343,377.409 105.167,377.583 105.167 C 377.725 105.167,377.833 105.017,377.833 104.821 C 377.833 104.452,378.194 104.000,378.488 104.000 C 378.586 104.000,378.667 103.888,378.667 103.750 C 378.667 103.612,378.742 103.500,378.833 103.500 C 378.925 103.500,379.000 103.350,379.000 103.167 C 379.000 102.880,378.889 102.833,378.203 102.833 C 377.598 102.833,377.349 102.913,377.167 103.167 C 377.035 103.350,376.791 103.500,376.625 103.500 C 376.459 103.500,376.280 103.612,376.227 103.750 C 376.174 103.888,375.984 104.000,375.804 104.000 C 375.450 104.000,375.000 104.366,375.000 104.655 C 375.000 104.753,374.887 104.833,374.750 104.833 C 374.613 104.833,374.500 104.908,374.500 105.000 C 374.500 105.092,374.383 105.167,374.241 105.167 C 373.867 105.167,371.333 107.789,371.333 108.176 C 371.333 108.354,371.221 108.500,371.083 108.500 C 370.889 108.500,370.833 108.279,370.833 107.514 C 370.833 106.881,370.759 106.498,370.625 106.444 C 370.458 106.376,370.458 106.357,370.625 106.346 C 370.882 106.330,370.921 103.741,370.667 103.583 C 370.575 103.527,370.500 102.960,370.500 102.323 C 370.500 101.406,370.448 101.167,370.250 101.167 C 370.061 101.167,370.000 100.963,370.000 100.333 C 370.000 99.875,369.925 99.500,369.833 99.500 C 369.742 99.500,369.667 99.242,369.667 98.927 C 369.667 98.611,369.742 98.307,369.833 98.250 C 370.325 97.946,370.010 97.000,369.417 97.000 C 368.906 97.000,368.833 97.052,368.833 97.417 " stroke="none" fill="#14a44c" fill-rule="evenodd"></path><path id="path2" d="" stroke="none" fill="#c0d0100" fill-rule="evenodd"></path><path id="path3" d="" stroke="none" fill="#c0d0100" fill-rule="evenodd"></path><path id="path4" d="" stroke="none" fill="#c0d0100" fill-rule="evenodd"></path></g></svg>